# xmcd
#
# Track frame offsets: 
#        150
#        35392
#        54357
#        77783
#        93966
#        115915
#        140349
#        159529
#        184828
#        221438
#        249389
#        279761
#
# Disc length: 3979 seconds
#
# Revision: 0
# Processed by: cddbd v1.5.2PL0 Copyright (c) Steve Scherf et al.
# Submitted via: ExactAudioCopy v0.95b4
#
DISCID=980f890c
DTITLE=Eric Clapton and Steve Winwood - Live from Madison Square Garden 
DTITLE=CD 1
DYEAR=2009
DGENRE=Rock
TTITLE0=Had to Cry Today
TTITLE1=Low Down
TTITLE2=Them Changes
TTITLE3=Forever Man
TTITLE4=Sleeping in the Ground
TTITLE5=Presence of the Lord
TTITLE6=Glad
TTITLE7=Well All Right
TTITLE8=Double Trouble
TTITLE9=Pearly Queen
TTITLE10=Tell the Truth
TTITLE11=No Face, No Name, No Number
EXTD=
EXTT0=
EXTT1=
EXTT2=
EXTT3=
EXTT4=
EXTT5=
EXTT6=
EXTT7=
EXTT8=
EXTT9=
EXTT10=
EXTT11=
PLAYORDER=
